<svg xmlns="http://www.w3.org/2000/svg" width="55.75" height="53.75" viewBox="0 0 55.75 53.75"><defs><style>.a,.b{fill:#ff881f;}.a{opacity:0.1;}.b{stroke:#ff881f;stroke-width:0.5px;}</style></defs><g transform="translate(-130.25 -322)"><circle class="a" cx="23.5" cy="23.5" r="23.5" transform="translate(139 322)"/><g transform="translate(130.5 327)"><g transform="translate(0 16.482)"><path class="b" d="M32.775,187.735a.947.947,0,0,0-.947.947v6.536a4.742,4.742,0,0,1-4.736,4.736H16.864a.947.947,0,0,0-.947.947v1.883l-2.261-2.261a.948.948,0,0,0-.869-.569H6.631a4.742,4.742,0,0,1-4.736-4.736V180.631a4.742,4.742,0,0,1,4.736-4.736H16.2a.947.947,0,1,0,0-1.895H6.631A6.638,6.638,0,0,0,0,180.631v14.588a6.638,6.638,0,0,0,6.631,6.631H12.3l3.891,3.891a.947.947,0,0,0,1.617-.669l0-3.221h9.281a6.638,6.638,0,0,0,6.631-6.631v-6.536A.947.947,0,0,0,32.775,187.735Z" transform="translate(0 -174)"/></g><g transform="translate(18.566)"><path class="b" d="M212.166,0h-2.4a13.768,13.768,0,1,0,0,27.536h2.4a13.794,13.794,0,0,0,3.494-.448l3.542,3.54a.947.947,0,0,0,1.617-.67v-5.48a13.9,13.9,0,0,0,3.619-4.462,13.62,13.62,0,0,0,1.5-6.247A13.784,13.784,0,0,0,212.166,0ZM219.3,23.259a.947.947,0,0,0-.377.757v3.656l-2.318-2.317a.947.947,0,0,0-.948-.235,11.877,11.877,0,0,1-3.492.522h-2.4a11.874,11.874,0,0,1,0-23.747h2.4A11.874,11.874,0,0,1,219.3,23.259Z" transform="translate(-196)"/></g><g transform="translate(29.788 6.637)"><path class="b" d="M322.473,73.791a4.02,4.02,0,0,0-3.719-3.718,3.98,3.98,0,0,0-3.018,1.069,4.025,4.025,0,0,0-1.274,2.932.947.947,0,0,0,1.895,0,2.116,2.116,0,0,1,2.268-2.111,2.116,2.116,0,0,1,.313,4.175,1.793,1.793,0,0,0-1.412,1.757v2.276a.947.947,0,1,0,1.894,0v-2.2A3.99,3.99,0,0,0,322.473,73.791Z" transform="translate(-314.462 -70.063)"/></g><g transform="translate(32.851 19.545)"><path class="b" d="M348.417,206.608a.948.948,0,1,0,.278.67A.954.954,0,0,0,348.417,206.608Z" transform="translate(-346.8 -206.33)"/></g><g transform="translate(5.115 29.365)"><path class="b" d="M74.935,310H54.947a.947.947,0,0,0,0,1.895H74.935a.947.947,0,0,0,0-1.895Z" transform="translate(-54 -310)"/></g><g transform="translate(25.103 34.67)"><path class="b" d="M266.617,366.278a.947.947,0,1,0,.278.67A.954.954,0,0,0,266.617,366.278Z" transform="translate(-265 -366)"/></g><g transform="translate(5.115 34.67)"><path class="b" d="M71.209,366H54.947a.947.947,0,0,0,0,1.895H71.209a.947.947,0,0,0,0-1.895Z" transform="translate(-54 -366)"/></g><g transform="translate(5.115 24.061)"><path class="b" d="M68.777,254H54.947a.947.947,0,0,0,0,1.895h13.83a.947.947,0,0,0,0-1.895Z" transform="translate(-54 -254)"/></g></g></g></svg>