<svg xmlns="http://www.w3.org/2000/svg" width="55.5" height="50.733" viewBox="0 0 55.5 50.733"><defs><style>.a,.b{fill:#ff881f;}.a{opacity:0.1;}.b{stroke:#ff881f;}</style></defs><g transform="translate(0.5 0.5)"><circle class="a" cx="23.5" cy="23.5" r="23.5" transform="translate(8 3.233)"/><path class="b" d="M32.674,33.844,43.59,44.76a.826.826,0,1,0,1.168-1.168L33.842,32.675A19.489,19.489,0,0,0,5.709,5.71,19.489,19.489,0,0,0,32.674,33.844ZM1.652,19.492A17.837,17.837,0,1,1,27.52,35.415V26.546a5.559,5.559,0,0,0-5.553-5.553H17.012a5.559,5.559,0,0,0-5.553,5.553v8.869A17.855,17.855,0,0,1,1.652,19.492Zm11.459,7.055a3.9,3.9,0,0,1,3.9-3.9h4.956a3.905,3.905,0,0,1,3.9,3.9v9.6a17.829,17.829,0,0,1-12.757,0v-9.6Z" transform="translate(0 -0.002)"/><path class="b" d="M97.363,69.9a5.71,5.71,0,1,0-5.71-5.71A5.716,5.716,0,0,0,97.363,69.9Zm0-9.769a4.058,4.058,0,1,1-4.058,4.059A4.063,4.063,0,0,1,97.363,60.129Z" transform="translate(-77.893 -49.698)"/></g></svg>