<svg xmlns="http://www.w3.org/2000/svg" width="52.04" height="47" viewBox="0 0 52.04 47"><defs><style>.a,.b{fill:#ff881f;}.a{opacity:0.1;}.b{stroke:#ff881f;}</style></defs><g transform="translate(0.515 0.337)"><circle class="a" cx="23.5" cy="23.5" r="23.5" transform="translate(4.525 -0.337)"/><g transform="translate(0 0.232)"><path class="b" d="M209.9,149.592a.727.727,0,0,0-.727-.727h-4.764v-6.83a.727.727,0,0,0-1.454,0v7.535a.718.718,0,0,0,.693.748h5.524A.727.727,0,0,0,209.9,149.592Zm0,0" transform="translate(-184.557 -128.47)"/><path class="b" d="M39.949,23.349A19.878,19.878,0,1,0,23.818,39.481,11.415,11.415,0,1,0,39.949,23.349ZM20.357,38.328A18.439,18.439,0,1,1,38.8,19.888a18.667,18.667,0,0,1-.158,2.413,11.378,11.378,0,0,0-3.119-1.5c.018-.3.028-.607.028-.91a15.19,15.19,0,1,0-15.19,15.19c.3,0,.607-.01.91-.028a11.378,11.378,0,0,0,1.5,3.119,18.671,18.671,0,0,1-2.413.158Zm.415-6.6a11.482,11.482,0,0,0,.157,1.888c-.191.008-.382.012-.572.012A13.736,13.736,0,1,1,34.094,19.888c0,.191,0,.382-.013.572A11.422,11.422,0,0,0,20.773,31.725Zm11.421,9.968a9.967,9.967,0,1,1,9.968-9.968A9.967,9.967,0,0,1,32.194,41.692Zm0,0" transform="translate(-0.464 0.005)"/><path class="b" d="M289.8,295.895a3.835,3.835,0,0,0-3.755-3.319,5.106,5.106,0,0,0-2.672.851,4.975,4.975,0,0,0-2.7-.88,3.811,3.811,0,0,0-3.741,3.355c-.536,2.791,1.118,6.479,6.02,8.424l.038.014a1.1,1.1,0,0,0,.751,0l.043-.016c4.9-1.985,6.552-5.661,6.015-8.424Zm-6.434,7.031c-4.034-1.648-5.424-4.568-5-6.751A2.387,2.387,0,0,1,280.678,294a3.908,3.908,0,0,1,2.258.889.726.726,0,0,0,.861.006,4.021,4.021,0,0,1,2.251-.866,2.406,2.406,0,0,1,2.329,2.151C288.794,298.335,287.4,301.243,283.369,302.925Zm0,0" transform="translate(-251.731 -265.968)"/></g></g></svg>