<svg xmlns="http://www.w3.org/2000/svg" width="54.87" height="52.416" viewBox="0 0 54.87 52.416"><defs><style>.a,.b{fill:#ff881f;}.a{opacity:0.1;}.b{stroke:#ff881f;stroke-width:0.5px;}</style></defs><g transform="translate(-466 -320.584)"><circle class="a" cx="23.5" cy="23.5" r="23.5" transform="translate(466 326)"/><g transform="translate(494.139 343.858)"><path class="b" d="M.89,189.041a.744.744,0,0,1,.744.744l-.146.878a3.723,3.723,0,0,0,3.719,3.719h8.031a.744.744,0,0,1,.744.743V196.6l1.775-1.775a.744.744,0,0,1,.682-.447h4.833a3.723,3.723,0,0,0,3.719-3.719V179.207a3.723,3.723,0,0,0-3.719-3.719H13.761a.744.744,0,0,1,0-1.488h7.513a5.213,5.213,0,0,1,5.207,5.207v11.455a5.213,5.213,0,0,1-5.207,5.207H16.822l-3.055,3.055a.744.744,0,0,1-1.27-.525l0-2.53H5.207A5.213,5.213,0,0,1,0,190.662l.146-.878A.744.744,0,0,1,.89,189.041Z" transform="translate(0 -174)"/></g><g transform="translate(470.313 320.834)"><path class="b" d="M30.242,13.8l1.742-1.742a2.427,2.427,0,0,0-3.432-3.432l-1.859,1.859a16.993,16.993,0,0,0-6.468-2.735V5.34h1.618a.809.809,0,0,0,.809-.809v-2.1A2.43,2.43,0,0,0,20.225,0H13.753a2.43,2.43,0,0,0-2.427,2.427v2.1a.809.809,0,0,0,.809.809h1.618V7.753a16.99,16.99,0,0,0-6.468,2.735L5.426,8.628A2.427,2.427,0,0,0,1.994,12.06L3.735,13.8a16.989,16.989,0,1,0,26.507,0ZM29.7,9.772a.809.809,0,0,1,1.144,1.144l-1.672,1.671q-.565-.58-1.183-1.1ZM12.944,2.427a.81.81,0,0,1,.809-.809h6.472a.81.81,0,0,1,.809.809V3.722h-8.09ZM18.607,5.34V7.52a17.405,17.405,0,0,0-3.236,0V5.34ZM3.138,9.772a.81.81,0,0,1,1.144,0l1.71,1.711q-.616.524-1.183,1.1L3.138,10.916a.81.81,0,0,1,0-1.144ZM16.989,39.8A15.373,15.373,0,0,1,14.682,9.233a15.619,15.619,0,0,1,4.614,0,15.36,15.36,0,0,1,6.992,2.959,15.517,15.517,0,0,1,2.251,2.1A15.372,15.372,0,0,1,16.989,39.8Zm0,0" transform="translate(0 0)"/><path class="b" d="M182.427,203.326a2.427,2.427,0,0,0,.809-4.715v-5.8a.809.809,0,1,0-1.618,0v5.8a2.427,2.427,0,0,0,.809,4.715Zm0-3.236a.809.809,0,1,1-.809.809A.81.81,0,0,1,182.427,200.09Zm0,0" transform="translate(-165.438 -176.467)"/><path class="b" d="M80.753,160.837c-.013-.015-.025-.03-.04-.044s-.031-.029-.047-.043a12.179,12.179,0,0,0-5.1-3.019.809.809,0,0,0-.458,1.552,10.544,10.544,0,0,1,3.864,2.107c.18.2.822.742,1.146,1.143a10.418,10.418,0,0,1,2.5,6.03,14.179,14.179,0,0,1,0,1.618,10.418,10.418,0,0,1-2.5,6.03,13.66,13.66,0,0,1-1.144,1.144,10.421,10.421,0,0,1-6.03,2.5,9.26,9.26,0,0,1-1.618,0,10.419,10.419,0,0,1-6.03-2.5,8.878,8.878,0,0,1-1.144-1.144,10.419,10.419,0,0,1-2.5-6.03,11.321,11.321,0,0,1,0-1.618,10.418,10.418,0,0,1,2.5-6.03A11.417,11.417,0,0,1,65.3,161.39a10.539,10.539,0,0,1,3.864-2.107.809.809,0,1,0-.458-1.552,12.175,12.175,0,0,0-5.1,3.018c-.017.014-.075.073-.088.087a12.115,12.115,0,0,0,0,17.071c.013.015.025.03.04.044s.028.027.043.039a12.116,12.116,0,0,0,17.071,0c.015-.013.07-.068.082-.082a12.115,12.115,0,0,0,0-17.071Zm0,0" transform="translate(-55.146 -144.94)"/><path class="b" d="M200.809,153.618a.809.809,0,1,0-.809-.809A.809.809,0,0,0,200.809,153.618Zm0,0" transform="translate(-183.82 -139.703)"/></g></g></svg>